<?xml version="1.0" standalone="no"?>
<!DOCTYPE svg PUBLIC "-//W3C//DTD SVG 20010904//EN"
 "http://www.w3.org/TR/2001/REC-SVG-20010904/DTD/svg10.dtd">
<svg version="1.0" xmlns="http://www.w3.org/2000/svg"
 width="512.000000pt" height="512.000000pt" viewBox="0 0 512.000000 512.000000"
 preserveAspectRatio="xMidYMid meet">
<metadata>
Created by potrace 1.14, written by Peter Selinger 2001-2017
</metadata>
<g transform="translate(0.000000,512.000000) scale(0.100000,-0.100000)"
fill="#000000" stroke="none">
<path d="M3728 4545 c-2 -1 -43 -6 -93 -10 -49 -3 -101 -8 -115 -10 -14 -2
-45 -6 -70 -9 -40 -5 -92 -14 -194 -32 -111 -21 -432 -107 -650 -176 -55 -18
-103 -32 -106 -33 -3 0 -70 -22 -150 -47 -80 -25 -192 -60 -250 -78 -58 -17
-116 -35 -130 -40 -93 -35 -432 -109 -654 -145 -79 -12 -207 -19 -356 -19
-179 0 -228 4 -365 30 -131 25 -184 26 -231 4 -50 -23 -92 -64 -110 -105 -15
-36 -21 -78 -44 -320 -16 -167 -20 -206 -25 -255 -7 -65 -14 -136 -20 -205 -3
-33 -7 -78 -9 -100 -3 -22 -7 -75 -11 -118 -4 -43 -8 -87 -10 -97 -2 -10 -6
-56 -10 -102 -3 -45 -8 -90 -10 -98 -2 -8 -7 -53 -10 -99 -4 -47 -8 -92 -10
-100 -1 -9 -6 -52 -10 -96 -3 -44 -8 -93 -10 -110 -2 -16 -7 -66 -10 -110 -3
-44 -8 -91 -10 -105 -2 -14 -6 -56 -10 -95 -3 -38 -8 -81 -10 -95 -2 -14 -6
-61 -10 -104 -4 -43 -8 -86 -10 -95 -12 -64 -15 -204 -5 -242 20 -73 84 -126
216 -177 l111 -43 -5 -70 c-8 -118 30 -185 138 -239 161 -81 489 -175 684
-196 28 -3 57 -7 63 -9 28 -9 258 -20 418 -20 156 0 443 13 455 20 3 1 41 6
85 9 75 6 218 22 275 31 14 2 48 6 75 10 72 8 206 25 235 30 34 5 173 23 235
30 28 3 61 8 75 10 14 3 52 7 85 10 33 4 96 10 140 15 229 26 667 34 855 17
219 -20 447 -68 639 -134 86 -29 112 -34 155 -29 65 7 122 47 154 106 23 44
24 50 17 185 -4 77 -8 142 -10 145 -1 3 -6 59 -10 125 -4 65 -8 126 -10 135
-2 8 -6 69 -10 135 -4 66 -9 122 -10 125 -2 3 -6 64 -10 135 -4 72 -9 132 -10
135 -2 3 -6 59 -10 125 -4 66 -9 122 -10 125 -2 3 -6 59 -10 125 -4 66 -9 127
-10 135 -2 8 -6 69 -10 135 -4 66 -9 122 -10 125 -2 3 -6 61 -10 130 -3 69 -8
132 -10 140 -2 8 -7 62 -10 120 -3 58 -8 116 -10 130 -2 14 -7 72 -10 130 -3
58 -8 121 -10 140 -2 19 -7 73 -10 120 -17 251 -27 336 -45 382 -41 109 -133
194 -237 220 -27 7 -52 15 -56 18 -4 4 -12 35 -18 71 -13 82 -47 153 -101 208
-48 49 -141 97 -208 106 -24 4 -47 8 -50 10 -3 2 -30 6 -60 9 -30 4 -72 9 -92
12 -38 6 -315 13 -320 9z"/>
</g>
</svg>
